<mxfile host="app.diagrams.net" modified="2024-03-30T06:19:38.807Z" agent="Mozilla/5.0 (Windows NT 10.0; Win64; x64) AppleWebKit/537.36 (KHTML, like Gecko) Chrome/122.0.0.0 Safari/537.36 Edg/122.0.0.0" etag="5mgt8bNitTHw0DV4RR84" version="24.1.0" type="github">
  <diagram name="第 1 页" id="Fqi6sP_qPkS2GYrcbJYC">
    <mxGraphModel dx="1870" dy="1779" grid="1" gridSize="10" guides="1" tooltips="1" connect="1" arrows="1" fold="1" page="1" pageScale="1" pageWidth="827" pageHeight="1169" math="0" shadow="0">
      <root>
        <mxCell id="0" />
        <mxCell id="1" parent="0" />
        <mxCell id="gVb3ln8y50Pm5yR6Sm1Q-35" style="edgeStyle=orthogonalEdgeStyle;rounded=0;orthogonalLoop=1;jettySize=auto;html=1;entryX=0;entryY=0.5;entryDx=0;entryDy=0;endArrow=block;endFill=0;" edge="1" parent="1" source="kAZNtnE30JV9RJR9WPhK-5" target="gVb3ln8y50Pm5yR6Sm1Q-4">
          <mxGeometry relative="1" as="geometry" />
        </mxCell>
        <mxCell id="kAZNtnE30JV9RJR9WPhK-5" value="圆弧数据更改类" style="swimlane;fontStyle=1;align=center;verticalAlign=top;childLayout=stackLayout;horizontal=1;startSize=26;horizontalStack=0;resizeParent=1;resizeParentMax=0;resizeLast=0;collapsible=1;marginBottom=0;whiteSpace=wrap;html=1;fontSize=13;" parent="1" vertex="1">
          <mxGeometry x="-270" y="-50" width="160" height="34" as="geometry" />
        </mxCell>
        <mxCell id="kAZNtnE30JV9RJR9WPhK-6" value="" style="line;strokeWidth=1;fillColor=none;align=left;verticalAlign=middle;spacingTop=-1;spacingLeft=3;spacingRight=3;rotatable=0;labelPosition=right;points=[];portConstraint=eastwest;strokeColor=inherit;fontSize=13;" parent="kAZNtnE30JV9RJR9WPhK-5" vertex="1">
          <mxGeometry y="26" width="160" height="8" as="geometry" />
        </mxCell>
        <mxCell id="gVb3ln8y50Pm5yR6Sm1Q-36" style="edgeStyle=orthogonalEdgeStyle;rounded=0;orthogonalLoop=1;jettySize=auto;html=1;entryX=0;entryY=0.5;entryDx=0;entryDy=0;endArrow=block;endFill=0;" edge="1" parent="1" source="kAZNtnE30JV9RJR9WPhK-7" target="gVb3ln8y50Pm5yR6Sm1Q-4">
          <mxGeometry relative="1" as="geometry">
            <Array as="points">
              <mxPoint x="-80" y="27" />
              <mxPoint x="-80" y="-55" />
            </Array>
          </mxGeometry>
        </mxCell>
        <mxCell id="kAZNtnE30JV9RJR9WPhK-7" value="矩形数据更改类" style="swimlane;fontStyle=1;align=center;verticalAlign=top;childLayout=stackLayout;horizontal=1;startSize=26;horizontalStack=0;resizeParent=1;resizeParentMax=0;resizeLast=0;collapsible=1;marginBottom=0;whiteSpace=wrap;html=1;fontSize=13;" parent="1" vertex="1">
          <mxGeometry x="-270" y="10" width="160" height="34" as="geometry" />
        </mxCell>
        <mxCell id="kAZNtnE30JV9RJR9WPhK-8" value="" style="line;strokeWidth=1;fillColor=none;align=left;verticalAlign=middle;spacingTop=-1;spacingLeft=3;spacingRight=3;rotatable=0;labelPosition=right;points=[];portConstraint=eastwest;strokeColor=inherit;fontSize=13;" parent="kAZNtnE30JV9RJR9WPhK-7" vertex="1">
          <mxGeometry y="26" width="160" height="8" as="geometry" />
        </mxCell>
        <mxCell id="gVb3ln8y50Pm5yR6Sm1Q-37" style="edgeStyle=orthogonalEdgeStyle;rounded=0;orthogonalLoop=1;jettySize=auto;html=1;entryX=0;entryY=0.5;entryDx=0;entryDy=0;endArrow=block;endFill=0;" edge="1" parent="1" source="kAZNtnE30JV9RJR9WPhK-9" target="gVb3ln8y50Pm5yR6Sm1Q-4">
          <mxGeometry relative="1" as="geometry">
            <Array as="points">
              <mxPoint x="-80" y="87" />
              <mxPoint x="-80" y="-55" />
            </Array>
          </mxGeometry>
        </mxCell>
        <mxCell id="kAZNtnE30JV9RJR9WPhK-9" value="贝赛尔曲线数据更改类" style="swimlane;fontStyle=1;align=center;verticalAlign=top;childLayout=stackLayout;horizontal=1;startSize=26;horizontalStack=0;resizeParent=1;resizeParentMax=0;resizeLast=0;collapsible=1;marginBottom=0;whiteSpace=wrap;html=1;fontSize=13;" parent="1" vertex="1">
          <mxGeometry x="-270" y="70" width="160" height="34" as="geometry" />
        </mxCell>
        <mxCell id="kAZNtnE30JV9RJR9WPhK-10" value="" style="line;strokeWidth=1;fillColor=none;align=left;verticalAlign=middle;spacingTop=-1;spacingLeft=3;spacingRight=3;rotatable=0;labelPosition=right;points=[];portConstraint=eastwest;strokeColor=inherit;fontSize=13;" parent="kAZNtnE30JV9RJR9WPhK-9" vertex="1">
          <mxGeometry y="26" width="160" height="8" as="geometry" />
        </mxCell>
        <mxCell id="gVb3ln8y50Pm5yR6Sm1Q-33" style="edgeStyle=orthogonalEdgeStyle;rounded=0;orthogonalLoop=1;jettySize=auto;html=1;entryX=0;entryY=0.5;entryDx=0;entryDy=0;endArrow=block;endFill=0;" edge="1" parent="1" source="kAZNtnE30JV9RJR9WPhK-18" target="gVb3ln8y50Pm5yR6Sm1Q-4">
          <mxGeometry relative="1" as="geometry">
            <Array as="points">
              <mxPoint x="-80" y="-155" />
              <mxPoint x="-80" y="-55" />
            </Array>
          </mxGeometry>
        </mxCell>
        <mxCell id="kAZNtnE30JV9RJR9WPhK-18" value="线段数据更改类" style="swimlane;fontStyle=1;align=center;verticalAlign=top;childLayout=stackLayout;horizontal=1;startSize=26;horizontalStack=0;resizeParent=1;resizeParentMax=0;resizeLast=0;collapsible=1;marginBottom=0;whiteSpace=wrap;html=1;fontSize=13;" parent="1" vertex="1">
          <mxGeometry x="-270" y="-172" width="160" height="34" as="geometry" />
        </mxCell>
        <mxCell id="kAZNtnE30JV9RJR9WPhK-19" value="" style="line;strokeWidth=1;fillColor=none;align=left;verticalAlign=middle;spacingTop=-1;spacingLeft=3;spacingRight=3;rotatable=0;labelPosition=right;points=[];portConstraint=eastwest;strokeColor=inherit;fontSize=13;" parent="kAZNtnE30JV9RJR9WPhK-18" vertex="1">
          <mxGeometry y="26" width="160" height="8" as="geometry" />
        </mxCell>
        <mxCell id="gVb3ln8y50Pm5yR6Sm1Q-32" style="edgeStyle=orthogonalEdgeStyle;rounded=0;orthogonalLoop=1;jettySize=auto;html=1;entryX=0;entryY=0.5;entryDx=0;entryDy=0;endArrow=block;endFill=0;" edge="1" parent="1" source="kAZNtnE30JV9RJR9WPhK-20" target="gVb3ln8y50Pm5yR6Sm1Q-4">
          <mxGeometry relative="1" as="geometry">
            <Array as="points">
              <mxPoint x="-80" y="-223" />
              <mxPoint x="-80" y="-55" />
            </Array>
          </mxGeometry>
        </mxCell>
        <mxCell id="kAZNtnE30JV9RJR9WPhK-20" value="点数据更改类" style="swimlane;fontStyle=1;align=center;verticalAlign=top;childLayout=stackLayout;horizontal=1;startSize=26;horizontalStack=0;resizeParent=1;resizeParentMax=0;resizeLast=0;collapsible=1;marginBottom=0;whiteSpace=wrap;html=1;fontSize=13;" parent="1" vertex="1">
          <mxGeometry x="-270" y="-240" width="160" height="34" as="geometry" />
        </mxCell>
        <mxCell id="kAZNtnE30JV9RJR9WPhK-21" value="" style="line;strokeWidth=1;fillColor=none;align=left;verticalAlign=middle;spacingTop=-1;spacingLeft=3;spacingRight=3;rotatable=0;labelPosition=right;points=[];portConstraint=eastwest;strokeColor=inherit;fontSize=13;" parent="kAZNtnE30JV9RJR9WPhK-20" vertex="1">
          <mxGeometry y="26" width="160" height="8" as="geometry" />
        </mxCell>
        <mxCell id="gVb3ln8y50Pm5yR6Sm1Q-38" style="edgeStyle=orthogonalEdgeStyle;rounded=0;orthogonalLoop=1;jettySize=auto;html=1;entryX=0;entryY=0.5;entryDx=0;entryDy=0;endArrow=block;endFill=0;" edge="1" parent="1" source="kAZNtnE30JV9RJR9WPhK-22" target="gVb3ln8y50Pm5yR6Sm1Q-4">
          <mxGeometry relative="1" as="geometry">
            <Array as="points">
              <mxPoint x="-80" y="147" />
              <mxPoint x="-80" y="-55" />
            </Array>
          </mxGeometry>
        </mxCell>
        <mxCell id="kAZNtnE30JV9RJR9WPhK-22" value="B样条曲线数据更改类" style="swimlane;fontStyle=1;align=center;verticalAlign=top;childLayout=stackLayout;horizontal=1;startSize=26;horizontalStack=0;resizeParent=1;resizeParentMax=0;resizeLast=0;collapsible=1;marginBottom=0;whiteSpace=wrap;html=1;fontSize=13;" parent="1" vertex="1">
          <mxGeometry x="-270" y="130" width="160" height="34" as="geometry" />
        </mxCell>
        <mxCell id="kAZNtnE30JV9RJR9WPhK-23" value="" style="line;strokeWidth=1;fillColor=none;align=left;verticalAlign=middle;spacingTop=-1;spacingLeft=3;spacingRight=3;rotatable=0;labelPosition=right;points=[];portConstraint=eastwest;strokeColor=inherit;fontSize=13;" parent="kAZNtnE30JV9RJR9WPhK-22" vertex="1">
          <mxGeometry y="26" width="160" height="8" as="geometry" />
        </mxCell>
        <mxCell id="gVb3ln8y50Pm5yR6Sm1Q-34" style="edgeStyle=orthogonalEdgeStyle;rounded=0;orthogonalLoop=1;jettySize=auto;html=1;entryX=0;entryY=0.5;entryDx=0;entryDy=0;endArrow=block;endFill=0;" edge="1" parent="1" source="kAZNtnE30JV9RJR9WPhK-24" target="gVb3ln8y50Pm5yR6Sm1Q-4">
          <mxGeometry relative="1" as="geometry">
            <Array as="points">
              <mxPoint x="-80" y="-87" />
              <mxPoint x="-80" y="-55" />
            </Array>
          </mxGeometry>
        </mxCell>
        <mxCell id="kAZNtnE30JV9RJR9WPhK-24" value="圆数据更改类" style="swimlane;fontStyle=1;align=center;verticalAlign=top;childLayout=stackLayout;horizontal=1;startSize=26;horizontalStack=0;resizeParent=1;resizeParentMax=0;resizeLast=0;collapsible=1;marginBottom=0;whiteSpace=wrap;html=1;fontSize=13;" parent="1" vertex="1">
          <mxGeometry x="-270" y="-104" width="160" height="34" as="geometry" />
        </mxCell>
        <mxCell id="kAZNtnE30JV9RJR9WPhK-25" value="" style="line;strokeWidth=1;fillColor=none;align=left;verticalAlign=middle;spacingTop=-1;spacingLeft=3;spacingRight=3;rotatable=0;labelPosition=right;points=[];portConstraint=eastwest;strokeColor=inherit;fontSize=13;" parent="kAZNtnE30JV9RJR9WPhK-24" vertex="1">
          <mxGeometry y="26" width="160" height="8" as="geometry" />
        </mxCell>
        <mxCell id="gVb3ln8y50Pm5yR6Sm1Q-1" value="&lt;span style=&quot;font-size: 13px; font-weight: 700;&quot;&gt;图元数据更改基类&lt;/span&gt;" style="swimlane;fontStyle=0;childLayout=stackLayout;horizontal=1;startSize=26;fillColor=none;horizontalStack=0;resizeParent=1;resizeParentMax=0;resizeLast=0;collapsible=1;marginBottom=0;whiteSpace=wrap;html=1;" vertex="1" parent="1">
          <mxGeometry x="-50" y="-120" width="140" height="156" as="geometry" />
        </mxCell>
        <mxCell id="gVb3ln8y50Pm5yR6Sm1Q-3" value="- 图元操作枚举" style="text;strokeColor=none;fillColor=none;align=left;verticalAlign=top;spacingLeft=4;spacingRight=4;overflow=hidden;rotatable=0;points=[[0,0.5],[1,0.5]];portConstraint=eastwest;whiteSpace=wrap;html=1;" vertex="1" parent="gVb3ln8y50Pm5yR6Sm1Q-1">
          <mxGeometry y="26" width="140" height="26" as="geometry" />
        </mxCell>
        <mxCell id="gVb3ln8y50Pm5yR6Sm1Q-4" value="- 约束数量" style="text;strokeColor=none;fillColor=none;align=left;verticalAlign=top;spacingLeft=4;spacingRight=4;overflow=hidden;rotatable=0;points=[[0,0.5],[1,0.5]];portConstraint=eastwest;whiteSpace=wrap;html=1;" vertex="1" parent="gVb3ln8y50Pm5yR6Sm1Q-1">
          <mxGeometry y="52" width="140" height="26" as="geometry" />
        </mxCell>
        <mxCell id="gVb3ln8y50Pm5yR6Sm1Q-5" value="- 图元首个参数索引" style="text;strokeColor=none;fillColor=none;align=left;verticalAlign=top;spacingLeft=4;spacingRight=4;overflow=hidden;rotatable=0;points=[[0,0.5],[1,0.5]];portConstraint=eastwest;whiteSpace=wrap;html=1;" vertex="1" parent="gVb3ln8y50Pm5yR6Sm1Q-1">
          <mxGeometry y="78" width="140" height="26" as="geometry" />
        </mxCell>
        <mxCell id="gVb3ln8y50Pm5yR6Sm1Q-6" value="- 约束容器" style="text;strokeColor=none;fillColor=none;align=left;verticalAlign=top;spacingLeft=4;spacingRight=4;overflow=hidden;rotatable=0;points=[[0,0.5],[1,0.5]];portConstraint=eastwest;whiteSpace=wrap;html=1;" vertex="1" parent="gVb3ln8y50Pm5yR6Sm1Q-1">
          <mxGeometry y="104" width="140" height="26" as="geometry" />
        </mxCell>
        <mxCell id="gVb3ln8y50Pm5yR6Sm1Q-7" value="- 图元容器" style="text;strokeColor=none;fillColor=none;align=left;verticalAlign=top;spacingLeft=4;spacingRight=4;overflow=hidden;rotatable=0;points=[[0,0.5],[1,0.5]];portConstraint=eastwest;whiteSpace=wrap;html=1;" vertex="1" parent="gVb3ln8y50Pm5yR6Sm1Q-1">
          <mxGeometry y="130" width="140" height="26" as="geometry" />
        </mxCell>
        <mxCell id="gVb3ln8y50Pm5yR6Sm1Q-8" value="&lt;span style=&quot;font-size: 13px; font-weight: 700;&quot;&gt;约束数据更改类&lt;/span&gt;" style="swimlane;fontStyle=0;childLayout=stackLayout;horizontal=1;startSize=26;fillColor=none;horizontalStack=0;resizeParent=1;resizeParentMax=0;resizeLast=0;collapsible=1;marginBottom=0;whiteSpace=wrap;html=1;" vertex="1" parent="1">
          <mxGeometry x="140" y="44" width="140" height="104" as="geometry" />
        </mxCell>
        <mxCell id="gVb3ln8y50Pm5yR6Sm1Q-10" value="- 约束操作枚举" style="text;strokeColor=none;fillColor=none;align=left;verticalAlign=top;spacingLeft=4;spacingRight=4;overflow=hidden;rotatable=0;points=[[0,0.5],[1,0.5]];portConstraint=eastwest;whiteSpace=wrap;html=1;" vertex="1" parent="gVb3ln8y50Pm5yR6Sm1Q-8">
          <mxGeometry y="26" width="140" height="26" as="geometry" />
        </mxCell>
        <mxCell id="gVb3ln8y50Pm5yR6Sm1Q-11" value="- 约束对象" style="text;strokeColor=none;fillColor=none;align=left;verticalAlign=top;spacingLeft=4;spacingRight=4;overflow=hidden;rotatable=0;points=[[0,0.5],[1,0.5]];portConstraint=eastwest;whiteSpace=wrap;html=1;" vertex="1" parent="gVb3ln8y50Pm5yR6Sm1Q-8">
          <mxGeometry y="52" width="140" height="26" as="geometry" />
        </mxCell>
        <mxCell id="gVb3ln8y50Pm5yR6Sm1Q-13" value="- 约束对象的索引" style="text;strokeColor=none;fillColor=none;align=left;verticalAlign=top;spacingLeft=4;spacingRight=4;overflow=hidden;rotatable=0;points=[[0,0.5],[1,0.5]];portConstraint=eastwest;whiteSpace=wrap;html=1;" vertex="1" parent="gVb3ln8y50Pm5yR6Sm1Q-8">
          <mxGeometry y="78" width="140" height="26" as="geometry" />
        </mxCell>
        <mxCell id="gVb3ln8y50Pm5yR6Sm1Q-25" style="edgeStyle=orthogonalEdgeStyle;rounded=0;orthogonalLoop=1;jettySize=auto;html=1;endArrow=block;endFill=0;" edge="1" parent="1" source="gVb3ln8y50Pm5yR6Sm1Q-15" target="gVb3ln8y50Pm5yR6Sm1Q-19">
          <mxGeometry relative="1" as="geometry" />
        </mxCell>
        <mxCell id="gVb3ln8y50Pm5yR6Sm1Q-15" value="&lt;span style=&quot;font-size: 13px; font-weight: 700;&quot;&gt;复合数据更改类&lt;/span&gt;" style="swimlane;fontStyle=0;childLayout=stackLayout;horizontal=1;startSize=26;fillColor=none;horizontalStack=0;resizeParent=1;resizeParentMax=0;resizeLast=0;collapsible=1;marginBottom=0;whiteSpace=wrap;html=1;" vertex="1" parent="1">
          <mxGeometry x="140" y="-240" width="140" height="78" as="geometry" />
        </mxCell>
        <mxCell id="gVb3ln8y50Pm5yR6Sm1Q-16" value="- 复合操作枚举" style="text;strokeColor=none;fillColor=none;align=left;verticalAlign=top;spacingLeft=4;spacingRight=4;overflow=hidden;rotatable=0;points=[[0,0.5],[1,0.5]];portConstraint=eastwest;whiteSpace=wrap;html=1;" vertex="1" parent="gVb3ln8y50Pm5yR6Sm1Q-15">
          <mxGeometry y="26" width="140" height="26" as="geometry" />
        </mxCell>
        <mxCell id="gVb3ln8y50Pm5yR6Sm1Q-18" value="- 数据改变对象容器" style="text;strokeColor=none;fillColor=none;align=left;verticalAlign=top;spacingLeft=4;spacingRight=4;overflow=hidden;rotatable=0;points=[[0,0.5],[1,0.5]];portConstraint=eastwest;whiteSpace=wrap;html=1;" vertex="1" parent="gVb3ln8y50Pm5yR6Sm1Q-15">
          <mxGeometry y="52" width="140" height="26" as="geometry" />
        </mxCell>
        <mxCell id="gVb3ln8y50Pm5yR6Sm1Q-19" value="&lt;span style=&quot;font-size: 13px; font-weight: 700;&quot;&gt;数据更改基类&lt;/span&gt;" style="swimlane;fontStyle=0;childLayout=stackLayout;horizontal=1;startSize=26;fillColor=none;horizontalStack=0;resizeParent=1;resizeParentMax=0;resizeLast=0;collapsible=1;marginBottom=0;whiteSpace=wrap;html=1;" vertex="1" parent="1">
          <mxGeometry x="140" y="-104" width="140" height="104" as="geometry" />
        </mxCell>
        <mxCell id="gVb3ln8y50Pm5yR6Sm1Q-20" value="+设置初始数据（纯虚）" style="text;strokeColor=none;fillColor=none;align=left;verticalAlign=top;spacingLeft=4;spacingRight=4;overflow=hidden;rotatable=0;points=[[0,0.5],[1,0.5]];portConstraint=eastwest;whiteSpace=wrap;html=1;" vertex="1" parent="gVb3ln8y50Pm5yR6Sm1Q-19">
          <mxGeometry y="26" width="140" height="26" as="geometry" />
        </mxCell>
        <mxCell id="gVb3ln8y50Pm5yR6Sm1Q-21" value="+撤销数据更改（纯虚）" style="text;strokeColor=none;fillColor=none;align=left;verticalAlign=top;spacingLeft=4;spacingRight=4;overflow=hidden;rotatable=0;points=[[0,0.5],[1,0.5]];portConstraint=eastwest;whiteSpace=wrap;html=1;" vertex="1" parent="gVb3ln8y50Pm5yR6Sm1Q-19">
          <mxGeometry y="52" width="140" height="26" as="geometry" />
        </mxCell>
        <mxCell id="gVb3ln8y50Pm5yR6Sm1Q-22" value="+重做数据更改（纯虚）" style="text;strokeColor=none;fillColor=none;align=left;verticalAlign=top;spacingLeft=4;spacingRight=4;overflow=hidden;rotatable=0;points=[[0,0.5],[1,0.5]];portConstraint=eastwest;whiteSpace=wrap;html=1;" vertex="1" parent="gVb3ln8y50Pm5yR6Sm1Q-19">
          <mxGeometry y="78" width="140" height="26" as="geometry" />
        </mxCell>
        <mxCell id="gVb3ln8y50Pm5yR6Sm1Q-31" style="edgeStyle=orthogonalEdgeStyle;rounded=0;orthogonalLoop=1;jettySize=auto;html=1;entryX=0.008;entryY=0.898;entryDx=0;entryDy=0;entryPerimeter=0;endArrow=block;endFill=0;" edge="1" parent="1" source="gVb3ln8y50Pm5yR6Sm1Q-4" target="gVb3ln8y50Pm5yR6Sm1Q-20">
          <mxGeometry relative="1" as="geometry" />
        </mxCell>
        <mxCell id="gVb3ln8y50Pm5yR6Sm1Q-40" style="edgeStyle=orthogonalEdgeStyle;rounded=0;orthogonalLoop=1;jettySize=auto;html=1;entryX=0.5;entryY=1;entryDx=0;entryDy=0;entryPerimeter=0;endArrow=block;endFill=0;" edge="1" parent="1" source="gVb3ln8y50Pm5yR6Sm1Q-8" target="gVb3ln8y50Pm5yR6Sm1Q-22">
          <mxGeometry relative="1" as="geometry" />
        </mxCell>
      </root>
    </mxGraphModel>
  </diagram>
</mxfile>
